<mxfile host="app.diagrams.net" agent="Mozilla/5.0 (Macintosh; Intel Mac OS X 10_15_7) AppleWebKit/537.36 (KHTML, like Gecko) Chrome/130.0.0.0 Safari/537.36" version="24.8.6">
  <diagram name="Page-1" id="7uQp8MufyrtNr7IwYD0L">
    <mxGraphModel dx="1434" dy="819" grid="1" gridSize="10" guides="1" tooltips="1" connect="1" arrows="1" fold="1" page="1" pageScale="1" pageWidth="850" pageHeight="1100" math="0" shadow="0">
      <root>
        <mxCell id="0" />
        <mxCell id="1" parent="0" />
        <mxCell id="grfcuQIvbZBvToJfju9Y-3" value="build_ticket" style="shape=ellipse;html=1;dashed=0;whiteSpace=wrap;perimeter=ellipsePerimeter;" vertex="1" parent="1">
          <mxGeometry x="10" y="310" width="100" height="50" as="geometry" />
        </mxCell>
        <mxCell id="grfcuQIvbZBvToJfju9Y-4" value="&#39;create_object&#39;&lt;div&gt;trigger&lt;/div&gt;&lt;div&gt;(eventbridge)&lt;/div&gt;" style="shape=ellipse;html=1;dashed=0;whiteSpace=wrap;perimeter=ellipsePerimeter;" vertex="1" parent="1">
          <mxGeometry x="540" y="60" width="100" height="50" as="geometry" />
        </mxCell>
        <mxCell id="grfcuQIvbZBvToJfju9Y-5" value="EmailLookupInvoke" style="shape=ellipse;html=1;dashed=0;whiteSpace=wrap;perimeter=ellipsePerimeter;" vertex="1" parent="1">
          <mxGeometry x="270" y="310" width="100" height="50" as="geometry" />
        </mxCell>
        <mxCell id="grfcuQIvbZBvToJfju9Y-6" value="EmailMessagingInvoke" style="shape=ellipse;html=1;dashed=0;whiteSpace=wrap;perimeter=ellipsePerimeter;" vertex="1" parent="1">
          <mxGeometry x="550" y="430" width="130" height="50" as="geometry" />
        </mxCell>
        <mxCell id="grfcuQIvbZBvToJfju9Y-7" value="SlackMessagingInvoke" style="shape=ellipse;html=1;dashed=0;whiteSpace=wrap;perimeter=ellipsePerimeter;" vertex="1" parent="1">
          <mxGeometry x="540" y="180" width="130" height="50" as="geometry" />
        </mxCell>
        <mxCell id="grfcuQIvbZBvToJfju9Y-8" value="ticket_&lt;div&gt;parameters&lt;div&gt;_bucket&lt;/div&gt;&lt;/div&gt;" style="shape=cylinder;whiteSpace=wrap;html=1;boundedLbl=1;backgroundOutline=1;" vertex="1" parent="1">
          <mxGeometry x="330" y="40" width="60" height="80" as="geometry" />
        </mxCell>
        <mxCell id="grfcuQIvbZBvToJfju9Y-9" value="" style="endArrow=classic;html=1;rounded=0;" edge="1" parent="1" source="grfcuQIvbZBvToJfju9Y-3">
          <mxGeometry width="50" height="50" relative="1" as="geometry">
            <mxPoint x="110" y="220" as="sourcePoint" />
            <mxPoint x="330" y="100" as="targetPoint" />
          </mxGeometry>
        </mxCell>
        <mxCell id="grfcuQIvbZBvToJfju9Y-10" value="" style="endArrow=classic;html=1;rounded=0;" edge="1" parent="1" target="grfcuQIvbZBvToJfju9Y-4">
          <mxGeometry width="50" height="50" relative="1" as="geometry">
            <mxPoint x="390" y="90" as="sourcePoint" />
            <mxPoint x="440" y="40" as="targetPoint" />
          </mxGeometry>
        </mxCell>
        <mxCell id="grfcuQIvbZBvToJfju9Y-11" value="customers" style="shape=umlActor;verticalLabelPosition=bottom;verticalAlign=top;html=1;outlineConnect=0;" vertex="1" parent="1">
          <mxGeometry x="850" y="290" width="30" height="60" as="geometry" />
        </mxCell>
        <mxCell id="grfcuQIvbZBvToJfju9Y-12" value="" style="endArrow=classic;html=1;rounded=0;exitX=0.03;exitY=0.76;exitDx=0;exitDy=0;exitPerimeter=0;" edge="1" parent="1" source="grfcuQIvbZBvToJfju9Y-4" target="grfcuQIvbZBvToJfju9Y-5">
          <mxGeometry width="50" height="50" relative="1" as="geometry">
            <mxPoint x="580" y="130" as="sourcePoint" />
            <mxPoint x="320" y="250" as="targetPoint" />
          </mxGeometry>
        </mxCell>
        <mxCell id="grfcuQIvbZBvToJfju9Y-13" value="" style="endArrow=classic;html=1;rounded=0;" edge="1" parent="1" target="grfcuQIvbZBvToJfju9Y-7">
          <mxGeometry width="50" height="50" relative="1" as="geometry">
            <mxPoint x="360" y="320" as="sourcePoint" />
            <mxPoint x="410" y="270" as="targetPoint" />
          </mxGeometry>
        </mxCell>
        <mxCell id="grfcuQIvbZBvToJfju9Y-14" value="" style="endArrow=classic;html=1;rounded=0;entryX=-0.01;entryY=0.34;entryDx=0;entryDy=0;entryPerimeter=0;exitX=1;exitY=1;exitDx=0;exitDy=0;" edge="1" parent="1" source="grfcuQIvbZBvToJfju9Y-5" target="grfcuQIvbZBvToJfju9Y-6">
          <mxGeometry width="50" height="50" relative="1" as="geometry">
            <mxPoint x="370" y="360" as="sourcePoint" />
            <mxPoint x="420" y="310" as="targetPoint" />
          </mxGeometry>
        </mxCell>
        <mxCell id="grfcuQIvbZBvToJfju9Y-15" value="" style="endArrow=classic;html=1;rounded=0;exitX=1;exitY=0.5;exitDx=0;exitDy=0;" edge="1" parent="1" source="grfcuQIvbZBvToJfju9Y-7" target="grfcuQIvbZBvToJfju9Y-11">
          <mxGeometry width="50" height="50" relative="1" as="geometry">
            <mxPoint x="640" y="200" as="sourcePoint" />
            <mxPoint x="690" y="150" as="targetPoint" />
          </mxGeometry>
        </mxCell>
        <mxCell id="grfcuQIvbZBvToJfju9Y-16" value="" style="endArrow=classic;html=1;rounded=0;" edge="1" parent="1" source="grfcuQIvbZBvToJfju9Y-6" target="grfcuQIvbZBvToJfju9Y-11">
          <mxGeometry width="50" height="50" relative="1" as="geometry">
            <mxPoint x="650" y="450" as="sourcePoint" />
            <mxPoint x="700" y="400" as="targetPoint" />
          </mxGeometry>
        </mxCell>
        <mxCell id="grfcuQIvbZBvToJfju9Y-18" value="" style="endArrow=classic;html=1;rounded=0;entryX=0.5;entryY=0;entryDx=0;entryDy=0;exitX=0.5;exitY=1;exitDx=0;exitDy=0;" edge="1" parent="1" source="grfcuQIvbZBvToJfju9Y-8" target="grfcuQIvbZBvToJfju9Y-5">
          <mxGeometry width="50" height="50" relative="1" as="geometry">
            <mxPoint x="370" y="120" as="sourcePoint" />
            <mxPoint x="420" y="70" as="targetPoint" />
          </mxGeometry>
        </mxCell>
        <mxCell id="grfcuQIvbZBvToJfju9Y-19" value="1" style="ellipse;whiteSpace=wrap;html=1;aspect=fixed;strokeWidth=2;fontFamily=Tahoma;spacingBottom=4;spacingRight=2;strokeColor=#d3d3d3;" vertex="1" parent="1">
          <mxGeometry x="90" y="260" width="20" height="20" as="geometry" />
        </mxCell>
        <mxCell id="grfcuQIvbZBvToJfju9Y-20" value="2" style="ellipse;whiteSpace=wrap;html=1;aspect=fixed;strokeWidth=2;fontFamily=Tahoma;spacingBottom=4;spacingRight=2;strokeColor=#d3d3d3;" vertex="1" parent="1">
          <mxGeometry x="430" y="60" width="20" height="20" as="geometry" />
        </mxCell>
        <mxCell id="grfcuQIvbZBvToJfju9Y-21" value="3" style="ellipse;whiteSpace=wrap;html=1;aspect=fixed;strokeWidth=2;fontFamily=Tahoma;spacingBottom=4;spacingRight=2;strokeColor=#d3d3d3;" vertex="1" parent="1">
          <mxGeometry x="380" y="220" width="20" height="20" as="geometry" />
        </mxCell>
        <mxCell id="grfcuQIvbZBvToJfju9Y-22" value="4" style="ellipse;whiteSpace=wrap;html=1;aspect=fixed;strokeWidth=2;fontFamily=Tahoma;spacingBottom=4;spacingRight=2;strokeColor=#d3d3d3;" vertex="1" parent="1">
          <mxGeometry x="320" y="190" width="20" height="20" as="geometry" />
        </mxCell>
        <mxCell id="grfcuQIvbZBvToJfju9Y-23" value="5" style="ellipse;whiteSpace=wrap;html=1;aspect=fixed;strokeWidth=2;fontFamily=Tahoma;spacingBottom=4;spacingRight=2;strokeColor=#d3d3d3;" vertex="1" parent="1">
          <mxGeometry x="415" y="380" width="20" height="20" as="geometry" />
        </mxCell>
        <mxCell id="grfcuQIvbZBvToJfju9Y-26" value="5" style="ellipse;whiteSpace=wrap;html=1;aspect=fixed;strokeWidth=2;fontFamily=Tahoma;spacingBottom=4;spacingRight=2;strokeColor=#d3d3d3;" vertex="1" parent="1">
          <mxGeometry x="450" y="280" width="20" height="20" as="geometry" />
        </mxCell>
        <mxCell id="grfcuQIvbZBvToJfju9Y-27" value="6" style="ellipse;whiteSpace=wrap;html=1;aspect=fixed;strokeWidth=2;fontFamily=Tahoma;spacingBottom=4;spacingRight=2;strokeColor=#d3d3d3;" vertex="1" parent="1">
          <mxGeometry x="660" y="110" width="20" height="20" as="geometry" />
        </mxCell>
        <mxCell id="grfcuQIvbZBvToJfju9Y-28" value="6" style="ellipse;whiteSpace=wrap;html=1;aspect=fixed;strokeWidth=2;fontFamily=Tahoma;spacingBottom=4;spacingRight=2;strokeColor=#d3d3d3;" vertex="1" parent="1">
          <mxGeometry x="700" y="410" width="20" height="20" as="geometry" />
        </mxCell>
        <mxCell id="grfcuQIvbZBvToJfju9Y-29" value="ticket&lt;br&gt;_parameters.json" style="text;html=1;align=center;verticalAlign=middle;whiteSpace=wrap;rounded=0;" vertex="1" parent="1">
          <mxGeometry x="130" y="170" width="60" height="30" as="geometry" />
        </mxCell>
        <mxCell id="grfcuQIvbZBvToJfju9Y-30" value="ticket&lt;br&gt;_parameters.json" style="text;html=1;align=center;verticalAlign=middle;whiteSpace=wrap;rounded=0;" vertex="1" parent="1">
          <mxGeometry x="260" y="210" width="60" height="30" as="geometry" />
        </mxCell>
        <mxCell id="grfcuQIvbZBvToJfju9Y-31" value="Secrets&lt;div&gt;Manager&lt;/div&gt;" style="shape=cylinder;whiteSpace=wrap;html=1;boundedLbl=1;backgroundOutline=1;" vertex="1" parent="1">
          <mxGeometry x="710" y="20" width="60" height="80" as="geometry" />
        </mxCell>
        <mxCell id="grfcuQIvbZBvToJfju9Y-32" value="" style="endArrow=classic;html=1;rounded=0;exitX=0.017;exitY=0.925;exitDx=0;exitDy=0;exitPerimeter=0;" edge="1" parent="1" source="grfcuQIvbZBvToJfju9Y-31" target="grfcuQIvbZBvToJfju9Y-7">
          <mxGeometry width="50" height="50" relative="1" as="geometry">
            <mxPoint x="745" y="130" as="sourcePoint" />
            <mxPoint x="795" y="80" as="targetPoint" />
          </mxGeometry>
        </mxCell>
        <mxCell id="grfcuQIvbZBvToJfju9Y-35" value="7" style="ellipse;whiteSpace=wrap;html=1;aspect=fixed;strokeWidth=2;fontFamily=Tahoma;spacingBottom=4;spacingRight=2;strokeColor=#d3d3d3;" vertex="1" parent="1">
          <mxGeometry x="740" y="220" width="20" height="20" as="geometry" />
        </mxCell>
        <mxCell id="grfcuQIvbZBvToJfju9Y-39" value="NB: ticket_parameters.json contains long-running pod details&amp;nbsp;" style="text;html=1;align=center;verticalAlign=middle;whiteSpace=wrap;rounded=0;" vertex="1" parent="1">
          <mxGeometry x="20" y="30" width="180" height="50" as="geometry" />
        </mxCell>
        <mxCell id="grfcuQIvbZBvToJfju9Y-40" value="&lt;font style=&quot;font-size: 11px;&quot;&gt;S3 Object Created Event Payload&lt;/font&gt;" style="text;html=1;align=center;verticalAlign=middle;whiteSpace=wrap;rounded=0;rotation=-45;" vertex="1" parent="1">
          <mxGeometry x="390" y="160" width="120" height="30" as="geometry" />
        </mxCell>
        <mxCell id="grfcuQIvbZBvToJfju9Y-41" value="pod info along with pod owner email address" style="text;html=1;align=center;verticalAlign=middle;whiteSpace=wrap;rounded=0;" vertex="1" parent="1">
          <mxGeometry x="480" y="260" width="110" height="40" as="geometry" />
        </mxCell>
        <mxCell id="grfcuQIvbZBvToJfju9Y-42" value="pod info along with pod owner email address" style="text;html=1;align=center;verticalAlign=middle;whiteSpace=wrap;rounded=0;" vertex="1" parent="1">
          <mxGeometry x="350" y="400" width="110" height="40" as="geometry" />
        </mxCell>
        <mxCell id="grfcuQIvbZBvToJfju9Y-43" value="slack bot token" style="text;html=1;align=center;verticalAlign=middle;whiteSpace=wrap;rounded=0;" vertex="1" parent="1">
          <mxGeometry x="670" y="130" width="60" height="30" as="geometry" />
        </mxCell>
        <mxCell id="grfcuQIvbZBvToJfju9Y-44" value="slack notification" style="text;html=1;align=center;verticalAlign=middle;whiteSpace=wrap;rounded=0;" vertex="1" parent="1">
          <mxGeometry x="700" y="250" width="60" height="30" as="geometry" />
        </mxCell>
        <mxCell id="grfcuQIvbZBvToJfju9Y-45" value="email&amp;nbsp;&lt;div&gt;notification&lt;/div&gt;" style="text;html=1;align=center;verticalAlign=middle;whiteSpace=wrap;rounded=0;" vertex="1" parent="1">
          <mxGeometry x="730" y="400" width="60" height="30" as="geometry" />
        </mxCell>
        <mxCell id="grfcuQIvbZBvToJfju9Y-46" value="triggers create object event" style="text;html=1;align=center;verticalAlign=middle;whiteSpace=wrap;rounded=0;" vertex="1" parent="1">
          <mxGeometry x="420" y="90" width="90" height="30" as="geometry" />
        </mxCell>
      </root>
    </mxGraphModel>
  </diagram>
</mxfile>
